<?xml version="1.0" encoding="utf-8" standalone="no"?>
<!DOCTYPE svg PUBLIC "-//W3C//DTD SVG 1.1//EN"
  "http://www.w3.org/Graphics/SVG/1.1/DTD/svg11.dtd">
<!-- Created with matplotlib (https://matplotlib.org/) -->
<svg height="345.6pt" version="1.1" viewBox="0 0 460.8 345.6" width="460.8pt" xmlns="http://www.w3.org/2000/svg" xmlns:xlink="http://www.w3.org/1999/xlink">
 <metadata>
  <rdf:RDF xmlns:cc="http://creativecommons.org/ns#" xmlns:dc="http://purl.org/dc/elements/1.1/" xmlns:rdf="http://www.w3.org/1999/02/22-rdf-syntax-ns#">
   <cc:Work>
    <dc:type rdf:resource="http://purl.org/dc/dcmitype/StillImage"/>
    <dc:date>2022-06-08T10:23:57.447233</dc:date>
    <dc:format>image/svg+xml</dc:format>
    <dc:creator>
     <cc:Agent>
      <dc:title>Matplotlib v3.3.4, https://matplotlib.org/</dc:title>
     </cc:Agent>
    </dc:creator>
   </cc:Work>
  </rdf:RDF>
 </metadata>
 <defs>
  <style type="text/css">*{stroke-linecap:butt;stroke-linejoin:round;}</style>
 </defs>
 <g id="figure_1">
  <g id="patch_1">
   <path d="M 0 345.6 
L 460.8 345.6 
L 460.8 0 
L 0 0 
z
" style="fill:#ffffff;"/>
  </g>
  <g id="axes_1">
   <g id="patch_2">
    <path d="M 57.6 307.584 
L 414.72 307.584 
L 414.72 41.472 
L 57.6 41.472 
z
" style="fill:#ffffff;"/>
   </g>
   <g id="matplotlib.axis_1">
    <g id="xtick_1">
     <g id="line2d_1">
      <defs>
       <path d="M 0 0 
L 0 3.5 
" id="m5ada6b8dbe" style="stroke:#000000;stroke-width:0.8;"/>
      </defs>
      <g>
       <use style="stroke:#000000;stroke-width:0.8;" x="73.832727" xlink:href="#m5ada6b8dbe" y="307.584"/>
      </g>
     </g>
     <g id="text_1">
      <!-- 0 -->
      <g transform="translate(70.651477 322.182437)scale(0.1 -0.1)">
       <defs>
        <path d="M 31.78125 66.40625 
Q 24.171875 66.40625 20.328125 58.90625 
Q 16.5 51.421875 16.5 36.375 
Q 16.5 21.390625 20.328125 13.890625 
Q 24.171875 6.390625 31.78125 6.390625 
Q 39.453125 6.390625 43.28125 13.890625 
Q 47.125 21.390625 47.125 36.375 
Q 47.125 51.421875 43.28125 58.90625 
Q 39.453125 66.40625 31.78125 66.40625 
z
M 31.78125 74.21875 
Q 44.046875 74.21875 50.515625 64.515625 
Q 56.984375 54.828125 56.984375 36.375 
Q 56.984375 17.96875 50.515625 8.265625 
Q 44.046875 -1.421875 31.78125 -1.421875 
Q 19.53125 -1.421875 13.0625 8.265625 
Q 6.59375 17.96875 6.59375 36.375 
Q 6.59375 54.828125 13.0625 64.515625 
Q 19.53125 74.21875 31.78125 74.21875 
z
" id="DejaVuSans-48"/>
       </defs>
       <use xlink:href="#DejaVuSans-48"/>
      </g>
     </g>
    </g>
    <g id="xtick_2">
     <g id="line2d_2">
      <g>
       <use style="stroke:#000000;stroke-width:0.8;" x="138.828632" xlink:href="#m5ada6b8dbe" y="307.584"/>
      </g>
     </g>
     <g id="text_2">
      <!-- 200 -->
      <g transform="translate(129.284882 322.182437)scale(0.1 -0.1)">
       <defs>
        <path d="M 19.1875 8.296875 
L 53.609375 8.296875 
L 53.609375 0 
L 7.328125 0 
L 7.328125 8.296875 
Q 12.9375 14.109375 22.625 23.890625 
Q 32.328125 33.6875 34.8125 36.53125 
Q 39.546875 41.84375 41.421875 45.53125 
Q 43.3125 49.21875 43.3125 52.78125 
Q 43.3125 58.59375 39.234375 62.25 
Q 35.15625 65.921875 28.609375 65.921875 
Q 23.96875 65.921875 18.8125 64.3125 
Q 13.671875 62.703125 7.8125 59.421875 
L 7.8125 69.390625 
Q 13.765625 71.78125 18.9375 73 
Q 24.125 74.21875 28.421875 74.21875 
Q 39.75 74.21875 46.484375 68.546875 
Q 53.21875 62.890625 53.21875 53.421875 
Q 53.21875 48.921875 51.53125 44.890625 
Q 49.859375 40.875 45.40625 35.40625 
Q 44.1875 33.984375 37.640625 27.21875 
Q 31.109375 20.453125 19.1875 8.296875 
z
" id="DejaVuSans-50"/>
       </defs>
       <use xlink:href="#DejaVuSans-50"/>
       <use x="63.623047" xlink:href="#DejaVuSans-48"/>
       <use x="127.246094" xlink:href="#DejaVuSans-48"/>
      </g>
     </g>
    </g>
    <g id="xtick_3">
     <g id="line2d_3">
      <g>
       <use style="stroke:#000000;stroke-width:0.8;" x="203.824537" xlink:href="#m5ada6b8dbe" y="307.584"/>
      </g>
     </g>
     <g id="text_3">
      <!-- 400 -->
      <g transform="translate(194.280787 322.182437)scale(0.1 -0.1)">
       <defs>
        <path d="M 37.796875 64.3125 
L 12.890625 25.390625 
L 37.796875 25.390625 
z
M 35.203125 72.90625 
L 47.609375 72.90625 
L 47.609375 25.390625 
L 58.015625 25.390625 
L 58.015625 17.1875 
L 47.609375 17.1875 
L 47.609375 0 
L 37.796875 0 
L 37.796875 17.1875 
L 4.890625 17.1875 
L 4.890625 26.703125 
z
" id="DejaVuSans-52"/>
       </defs>
       <use xlink:href="#DejaVuSans-52"/>
       <use x="63.623047" xlink:href="#DejaVuSans-48"/>
       <use x="127.246094" xlink:href="#DejaVuSans-48"/>
      </g>
     </g>
    </g>
    <g id="xtick_4">
     <g id="line2d_4">
      <g>
       <use style="stroke:#000000;stroke-width:0.8;" x="268.820442" xlink:href="#m5ada6b8dbe" y="307.584"/>
      </g>
     </g>
     <g id="text_4">
      <!-- 600 -->
      <g transform="translate(259.276692 322.182437)scale(0.1 -0.1)">
       <defs>
        <path d="M 33.015625 40.375 
Q 26.375 40.375 22.484375 35.828125 
Q 18.609375 31.296875 18.609375 23.390625 
Q 18.609375 15.53125 22.484375 10.953125 
Q 26.375 6.390625 33.015625 6.390625 
Q 39.65625 6.390625 43.53125 10.953125 
Q 47.40625 15.53125 47.40625 23.390625 
Q 47.40625 31.296875 43.53125 35.828125 
Q 39.65625 40.375 33.015625 40.375 
z
M 52.59375 71.296875 
L 52.59375 62.3125 
Q 48.875 64.0625 45.09375 64.984375 
Q 41.3125 65.921875 37.59375 65.921875 
Q 27.828125 65.921875 22.671875 59.328125 
Q 17.53125 52.734375 16.796875 39.40625 
Q 19.671875 43.65625 24.015625 45.921875 
Q 28.375 48.1875 33.59375 48.1875 
Q 44.578125 48.1875 50.953125 41.515625 
Q 57.328125 34.859375 57.328125 23.390625 
Q 57.328125 12.15625 50.6875 5.359375 
Q 44.046875 -1.421875 33.015625 -1.421875 
Q 20.359375 -1.421875 13.671875 8.265625 
Q 6.984375 17.96875 6.984375 36.375 
Q 6.984375 53.65625 15.1875 63.9375 
Q 23.390625 74.21875 37.203125 74.21875 
Q 40.921875 74.21875 44.703125 73.484375 
Q 48.484375 72.75 52.59375 71.296875 
z
" id="DejaVuSans-54"/>
       </defs>
       <use xlink:href="#DejaVuSans-54"/>
       <use x="63.623047" xlink:href="#DejaVuSans-48"/>
       <use x="127.246094" xlink:href="#DejaVuSans-48"/>
      </g>
     </g>
    </g>
    <g id="xtick_5">
     <g id="line2d_5">
      <g>
       <use style="stroke:#000000;stroke-width:0.8;" x="333.816347" xlink:href="#m5ada6b8dbe" y="307.584"/>
      </g>
     </g>
     <g id="text_5">
      <!-- 800 -->
      <g transform="translate(324.272597 322.182437)scale(0.1 -0.1)">
       <defs>
        <path d="M 31.78125 34.625 
Q 24.75 34.625 20.71875 30.859375 
Q 16.703125 27.09375 16.703125 20.515625 
Q 16.703125 13.921875 20.71875 10.15625 
Q 24.75 6.390625 31.78125 6.390625 
Q 38.8125 6.390625 42.859375 10.171875 
Q 46.921875 13.96875 46.921875 20.515625 
Q 46.921875 27.09375 42.890625 30.859375 
Q 38.875 34.625 31.78125 34.625 
z
M 21.921875 38.8125 
Q 15.578125 40.375 12.03125 44.71875 
Q 8.5 49.078125 8.5 55.328125 
Q 8.5 64.0625 14.71875 69.140625 
Q 20.953125 74.21875 31.78125 74.21875 
Q 42.671875 74.21875 48.875 69.140625 
Q 55.078125 64.0625 55.078125 55.328125 
Q 55.078125 49.078125 51.53125 44.71875 
Q 48 40.375 41.703125 38.8125 
Q 48.828125 37.15625 52.796875 32.3125 
Q 56.78125 27.484375 56.78125 20.515625 
Q 56.78125 9.90625 50.3125 4.234375 
Q 43.84375 -1.421875 31.78125 -1.421875 
Q 19.734375 -1.421875 13.25 4.234375 
Q 6.78125 9.90625 6.78125 20.515625 
Q 6.78125 27.484375 10.78125 32.3125 
Q 14.796875 37.15625 21.921875 38.8125 
z
M 18.3125 54.390625 
Q 18.3125 48.734375 21.84375 45.5625 
Q 25.390625 42.390625 31.78125 42.390625 
Q 38.140625 42.390625 41.71875 45.5625 
Q 45.3125 48.734375 45.3125 54.390625 
Q 45.3125 60.0625 41.71875 63.234375 
Q 38.140625 66.40625 31.78125 66.40625 
Q 25.390625 66.40625 21.84375 63.234375 
Q 18.3125 60.0625 18.3125 54.390625 
z
" id="DejaVuSans-56"/>
       </defs>
       <use xlink:href="#DejaVuSans-56"/>
       <use x="63.623047" xlink:href="#DejaVuSans-48"/>
       <use x="127.246094" xlink:href="#DejaVuSans-48"/>
      </g>
     </g>
    </g>
    <g id="xtick_6">
     <g id="line2d_6">
      <g>
       <use style="stroke:#000000;stroke-width:0.8;" x="398.812252" xlink:href="#m5ada6b8dbe" y="307.584"/>
      </g>
     </g>
     <g id="text_6">
      <!-- 1000 -->
      <g transform="translate(386.087252 322.182437)scale(0.1 -0.1)">
       <defs>
        <path d="M 12.40625 8.296875 
L 28.515625 8.296875 
L 28.515625 63.921875 
L 10.984375 60.40625 
L 10.984375 69.390625 
L 28.421875 72.90625 
L 38.28125 72.90625 
L 38.28125 8.296875 
L 54.390625 8.296875 
L 54.390625 0 
L 12.40625 0 
z
" id="DejaVuSans-49"/>
       </defs>
       <use xlink:href="#DejaVuSans-49"/>
       <use x="63.623047" xlink:href="#DejaVuSans-48"/>
       <use x="127.246094" xlink:href="#DejaVuSans-48"/>
       <use x="190.869141" xlink:href="#DejaVuSans-48"/>
      </g>
     </g>
    </g>
   </g>
   <g id="matplotlib.axis_2">
    <g id="ytick_1">
     <g id="line2d_7">
      <defs>
       <path d="M 0 0 
L -3.5 0 
" id="m4007596c67" style="stroke:#000000;stroke-width:0.8;"/>
      </defs>
      <g>
       <use style="stroke:#000000;stroke-width:0.8;" x="57.6" xlink:href="#m4007596c67" y="295.488"/>
      </g>
     </g>
     <g id="text_7">
      <!-- 70 -->
      <g transform="translate(37.875 299.287219)scale(0.1 -0.1)">
       <defs>
        <path d="M 8.203125 72.90625 
L 55.078125 72.90625 
L 55.078125 68.703125 
L 28.609375 0 
L 18.3125 0 
L 43.21875 64.59375 
L 8.203125 64.59375 
z
" id="DejaVuSans-55"/>
       </defs>
       <use xlink:href="#DejaVuSans-55"/>
       <use x="63.623047" xlink:href="#DejaVuSans-48"/>
      </g>
     </g>
    </g>
    <g id="ytick_2">
     <g id="line2d_8">
      <g>
       <use style="stroke:#000000;stroke-width:0.8;" x="57.6" xlink:href="#m4007596c67" y="262.164583"/>
      </g>
     </g>
     <g id="text_8">
      <!-- 72 -->
      <g transform="translate(37.875 265.963802)scale(0.1 -0.1)">
       <use xlink:href="#DejaVuSans-55"/>
       <use x="63.623047" xlink:href="#DejaVuSans-50"/>
      </g>
     </g>
    </g>
    <g id="ytick_3">
     <g id="line2d_9">
      <g>
       <use style="stroke:#000000;stroke-width:0.8;" x="57.6" xlink:href="#m4007596c67" y="228.841166"/>
      </g>
     </g>
     <g id="text_9">
      <!-- 74 -->
      <g transform="translate(37.875 232.640385)scale(0.1 -0.1)">
       <use xlink:href="#DejaVuSans-55"/>
       <use x="63.623047" xlink:href="#DejaVuSans-52"/>
      </g>
     </g>
    </g>
    <g id="ytick_4">
     <g id="line2d_10">
      <g>
       <use style="stroke:#000000;stroke-width:0.8;" x="57.6" xlink:href="#m4007596c67" y="195.51775"/>
      </g>
     </g>
     <g id="text_10">
      <!-- 76 -->
      <g transform="translate(37.875 199.316968)scale(0.1 -0.1)">
       <use xlink:href="#DejaVuSans-55"/>
       <use x="63.623047" xlink:href="#DejaVuSans-54"/>
      </g>
     </g>
    </g>
    <g id="ytick_5">
     <g id="line2d_11">
      <g>
       <use style="stroke:#000000;stroke-width:0.8;" x="57.6" xlink:href="#m4007596c67" y="162.194333"/>
      </g>
     </g>
     <g id="text_11">
      <!-- 78 -->
      <g transform="translate(37.875 165.993552)scale(0.1 -0.1)">
       <use xlink:href="#DejaVuSans-55"/>
       <use x="63.623047" xlink:href="#DejaVuSans-56"/>
      </g>
     </g>
    </g>
    <g id="ytick_6">
     <g id="line2d_12">
      <g>
       <use style="stroke:#000000;stroke-width:0.8;" x="57.6" xlink:href="#m4007596c67" y="128.870916"/>
      </g>
     </g>
     <g id="text_12">
      <!-- 80 -->
      <g transform="translate(37.875 132.670135)scale(0.1 -0.1)">
       <use xlink:href="#DejaVuSans-56"/>
       <use x="63.623047" xlink:href="#DejaVuSans-48"/>
      </g>
     </g>
    </g>
    <g id="ytick_7">
     <g id="line2d_13">
      <g>
       <use style="stroke:#000000;stroke-width:0.8;" x="57.6" xlink:href="#m4007596c67" y="95.547499"/>
      </g>
     </g>
     <g id="text_13">
      <!-- 82 -->
      <g transform="translate(37.875 99.346718)scale(0.1 -0.1)">
       <use xlink:href="#DejaVuSans-56"/>
       <use x="63.623047" xlink:href="#DejaVuSans-50"/>
      </g>
     </g>
    </g>
    <g id="ytick_8">
     <g id="line2d_14">
      <g>
       <use style="stroke:#000000;stroke-width:0.8;" x="57.6" xlink:href="#m4007596c67" y="62.224083"/>
      </g>
     </g>
     <g id="text_14">
      <!-- 84 -->
      <g transform="translate(37.875 66.023301)scale(0.1 -0.1)">
       <use xlink:href="#DejaVuSans-56"/>
       <use x="63.623047" xlink:href="#DejaVuSans-52"/>
      </g>
     </g>
    </g>
   </g>
   <g id="line2d_15">
    <path clip-path="url(#pcc5683df24)" d="M 73.832727 295.488 
L 74.157707 295.488 
L 74.482686 128.870916 
L 74.807666 170.525187 
L 75.457625 212.179458 
L 75.782604 224.080678 
L 76.107584 170.525187 
L 76.757543 195.51775 
L 77.407502 212.179458 
L 77.732482 218.587807 
L 78.057461 188.377018 
L 78.70742 201.76589 
L 79.682359 216.564118 
L 80.007338 195.51775 
L 80.332318 200.278238 
L 80.657297 181.885443 
L 81.307256 191.352323 
L 81.632236 175.5237 
L 81.957215 180.137711 
L 82.282195 165.896935 
L 82.607174 170.525187 
L 83.257133 148.309576 
L 83.907093 157.508228 
L 84.232072 146.542425 
L 84.882031 155.053601 
L 85.53199 137.877245 
L 85.85697 142.024897 
L 86.181949 133.143149 
L 86.506929 137.20177 
L 86.831908 128.870916 
L 87.806847 140.231172 
L 88.456806 127.059861 
L 89.106765 134.0777 
L 89.431744 127.170742 
L 89.756724 130.537087 
L 90.081704 123.970414 
L 90.406683 127.268829 
L 91.056642 116.52891 
L 91.381622 119.782712 
L 91.706601 113.994391 
L 92.031581 117.178489 
L 92.68154 107.690778 
L 93.006519 105.266829 
L 93.331499 104.288068 
L 93.656478 104.684565 
L 93.981458 106.390834 
L 94.631417 112.209208 
L 94.956396 107.412655 
L 95.281376 110.21975 
L 95.606355 105.59353 
L 95.931335 108.345623 
L 96.581294 100.710282 
L 97.231253 106.046658 
L 97.556233 101.85193 
L 97.881212 104.433744 
L 98.531171 97.494972 
L 98.856151 100.033344 
L 99.50611 93.464786 
L 99.831089 95.9589 
L 100.156069 92.296434 
L 101.131007 99.467901 
L 101.780966 93.440847 
L 102.105946 95.736837 
L 102.755905 89.993597 
L 103.405864 94.460866 
L 103.730844 91.247704 
L 104.055823 93.420473 
L 104.705782 88.084443 
L 105.030762 86.78722 
L 105.355741 88.91682 
L 105.680721 85.954395 
L 106.0057 88.049731 
L 106.655659 83.132893 
L 108.605536 94.930399 
L 109.255495 90.246047 
L 109.905455 93.911082 
L 110.230434 91.271486 
L 110.555414 106.947616 
L 110.880393 108.587097 
L 111.530352 103.949558 
L 111.855332 102.748746 
L 112.180311 102.268189 
L 112.505291 102.489878 
L 112.83027 103.396403 
L 113.15525 121.35949 
L 113.805209 116.777741 
L 114.130188 118.207423 
L 114.780147 113.783543 
L 115.105127 115.203109 
L 115.755086 110.927538 
L 116.405045 113.723909 
L 116.730025 111.332276 
L 117.055004 112.706572 
L 117.704963 108.656344 
L 118.029943 110.020078 
L 118.354922 107.741938 
L 118.679902 109.092629 
L 119.329861 105.237287 
L 119.65484 106.577081 
L 120.304799 102.836997 
L 120.629779 104.165625 
L 121.279738 100.534678 
L 121.929697 103.151501 
L 122.579656 99.63017 
L 122.904636 100.918708 
L 123.229615 98.923401 
L 123.554595 100.199795 
L 124.204554 96.829169 
L 124.529533 98.094512 
L 125.179492 94.813965 
L 125.829451 97.30681 
L 126.47941 94.116433 
L 127.129369 96.5573 
L 127.779328 93.452315 
L 128.104308 104.572592 
L 128.754267 101.428102 
L 129.079247 102.562956 
L 129.729206 99.496228 
L 130.054185 100.622618 
L 130.379165 98.879841 
L 131.029124 101.101402 
L 131.679083 98.1538 
L 132.329042 100.334289 
L 132.979001 97.459499 
L 133.30398 98.535741 
L 133.62896 96.898449 
L 133.953939 97.966135 
L 134.603898 95.192995 
L 134.928878 96.252757 
L 135.253857 94.670567 
L 136.228796 97.792082 
L 136.878755 95.120276 
L 137.203735 96.14256 
L 137.853694 93.527898 
L 138.178673 94.542773 
L 138.828632 91.983054 
L 139.153612 92.990505 
L 139.803571 90.483647 
L 140.778509 93.454725 
L 141.428468 91.003397 
L 141.753448 91.977133 
L 142.403407 89.574434 
L 142.728387 90.541165 
L 143.378346 88.185349 
L 143.703325 89.145084 
L 144.353284 86.834496 
L 144.678264 87.787252 
L 145.328223 85.520318 
L 145.653202 86.466118 
L 146.303161 84.24134 
L 146.628141 85.180214 
L 147.2781 82.996169 
L 147.603079 83.92815 
L 147.928059 82.669236 
L 148.253038 90.476545 
L 148.578018 89.200182 
L 148.902998 90.089354 
L 149.227977 88.825609 
L 150.202916 91.452673 
L 150.527895 90.204504 
L 151.502834 92.770548 
L 152.152793 90.659147 
L 152.477772 91.502064 
L 153.127731 89.426872 
L 153.77769 91.095383 
L 154.10267 89.904018 
L 154.427649 90.729656 
L 155.077609 88.710225 
L 155.402588 89.530771 
L 156.052547 87.544632 
L 156.377527 88.360096 
L 157.027486 86.406251 
L 157.352465 87.216645 
L 157.677445 86.090854 
L 158.002424 92.98416 
L 158.327404 91.844898 
L 158.652383 98.663621 
L 159.302342 96.683525 
L 159.952301 98.178296 
L 160.277281 97.045181 
L 160.60226 97.785639 
L 161.252219 95.85605 
L 161.577199 96.592699 
L 162.227158 94.693053 
L 162.552138 94.209698 
L 162.877117 101.303362 
L 163.202097 100.195875 
L 163.527076 100.9009 
L 163.852056 99.802828 
L 164.177035 100.504208 
L 164.502015 99.415396 
L 164.826994 100.113163 
L 165.151974 99.03346 
L 165.801933 100.416942 
L 166.126912 99.347538 
L 166.776871 100.714371 
L 167.101851 99.655073 
L 167.42683 100.332696 
L 167.75181 99.28202 
L 168.07679 99.956268 
L 168.401769 98.914078 
L 168.726749 99.584978 
L 169.051728 98.551141 
L 169.376708 99.218723 
L 169.701687 98.193109 
L 170.026667 98.857401 
L 170.351646 97.839882 
L 170.676626 98.500913 
L 171.001605 97.491365 
L 171.326585 98.149162 
L 171.651564 97.147465 
L 171.976544 97.802054 
L 172.301523 96.808089 
L 172.626503 97.459499 
L 172.951482 96.47315 
L 173.276462 97.121407 
L 173.926421 95.439657 
L 174.2514 96.084974 
L 174.90136 94.426038 
L 175.226339 95.068409 
L 175.876298 93.431727 
L 176.201278 94.071146 
L 176.851237 92.456176 
L 177.176216 93.09264 
L 177.826175 91.49886 
L 178.151155 92.132367 
L 178.801114 90.559272 
L 179.126093 91.189822 
L 179.776052 89.636924 
L 180.101032 90.264519 
L 180.750991 88.731346 
L 181.075971 88.349239 
L 181.40095 88.973151 
L 182.050909 87.466072 
L 182.375889 88.087033 
L 183.025848 86.598629 
L 183.350827 87.216645 
L 183.675807 86.356528 
L 184.000786 86.97162 
L 184.650745 85.5115 
L 184.975725 86.123676 
L 185.625684 84.681168 
L 185.950663 84.327332 
L 186.275643 84.935864 
L 186.925602 83.516696 
L 187.250581 83.17023 
L 187.575561 83.775124 
L 188.22552 82.378614 
L 188.5505 82.980618 
L 189.200459 81.600339 
L 189.525438 82.199464 
L 190.175397 80.835072 
L 190.500377 81.43133 
L 191.150336 80.082488 
L 191.475315 80.675892 
L 192.125274 79.342276 
L 192.450254 79.932838 
L 193.100213 78.614133 
L 193.425192 79.201867 
L 194.075152 77.897765 
L 194.400131 78.482685 
L 195.05009 77.19289 
L 195.37507 77.775011 
L 196.025029 76.499233 
L 196.350008 76.196997 
L 196.674988 76.775601 
L 197.324947 75.518464 
L 197.649926 76.094301 
L 198.299885 74.850534 
L 198.624865 75.423618 
L 199.274824 74.192959 
L 199.599803 74.763307 
L 200.249762 73.5455 
L 200.574742 74.113128 
L 200.899722 73.402729 
L 201.224701 73.967831 
L 201.87466 72.769468 
L 202.19964 73.331888 
L 202.849599 72.145753 
L 203.174578 72.705508 
L 203.824537 71.531371 
L 204.149517 72.088477 
L 204.799476 70.926114 
L 205.124455 71.480587 
L 205.774414 70.329779 
L 206.099394 70.881637 
L 206.749353 69.742171 
L 207.074333 70.291431 
L 207.724292 69.163099 
L 208.049271 69.709778 
L 208.69923 68.59238 
L 209.02421 69.136494 
L 209.674169 68.029833 
L 209.999148 68.5714 
L 210.649107 67.475285 
L 210.974087 68.014322 
L 211.624046 66.928565 
L 211.949025 67.46509 
L 212.598984 66.38951 
L 212.923964 66.923539 
L 213.573923 65.857959 
L 213.898903 66.38951 
L 214.548862 65.333756 
L 214.873841 65.862847 
L 215.5238 64.816751 
L 215.84878 65.343398 
L 216.498739 64.306796 
L 216.823718 64.831017 
L 217.473677 63.803748 
L 217.798657 64.325559 
L 218.448616 63.307467 
L 218.773595 63.826887 
L 219.423554 62.817818 
L 219.748534 63.334863 
L 220.398493 62.334669 
L 220.723473 62.849357 
L 221.373432 61.857891 
L 221.698411 62.370238 
L 222.34837 61.387359 
L 222.67335 61.897383 
L 223.323309 60.922951 
L 223.648288 61.430668 
L 224.298247 60.464549 
L 224.623227 60.969976 
L 225.273186 60.012036 
L 225.598165 60.51519 
L 226.248124 59.565299 
L 226.573104 60.066197 
L 227.223063 59.12423 
L 227.548043 59.622888 
L 227.873022 59.067127 
L 228.198002 62.889151 
L 228.522981 62.328873 
L 228.847961 62.816654 
L 229.17294 62.258867 
L 229.49792 62.744761 
L 229.822899 62.189443 
L 230.147879 62.673465 
L 230.472858 62.120594 
L 230.797838 62.602758 
L 231.122817 62.052313 
L 231.447797 62.532633 
L 231.772776 61.984592 
L 232.097756 62.463083 
L 232.422735 61.917426 
L 232.747715 62.3941 
L 233.072695 61.850806 
L 233.397674 62.325679 
L 233.722654 61.784727 
L 234.047633 62.257811 
L 234.372613 61.719182 
L 234.697592 62.190491 
L 235.022572 61.654165 
L 235.347551 62.123711 
L 235.672531 61.589669 
L 235.99751 62.057466 
L 236.32249 61.525688 
L 236.647469 61.991748 
L 236.972449 61.462215 
L 237.297428 61.926552 
L 237.622408 61.399246 
L 237.947387 61.861872 
L 238.272367 61.336773 
L 238.597346 61.7977 
L 238.922326 61.274791 
L 239.247305 61.734032 
L 239.572285 61.213294 
L 239.897265 61.670862 
L 240.222244 61.152277 
L 240.547224 61.608183 
L 240.872203 61.091734 
L 241.197183 61.54599 
L 241.522162 61.031659 
L 241.847142 61.484277 
L 242.172121 60.972047 
L 242.497101 61.423039 
L 242.82208 60.912893 
L 243.14706 61.36227 
L 243.472039 60.854191 
L 243.797019 61.301965 
L 244.121998 60.795936 
L 244.446978 61.242119 
L 244.771957 60.738124 
L 245.096937 61.182726 
L 245.421916 60.680749 
L 245.746896 61.123781 
L 246.071876 60.623806 
L 246.396855 61.06528 
L 246.721835 60.56729 
L 247.046814 61.007216 
L 247.371794 60.511197 
L 247.696773 60.949586 
L 248.021753 60.455522 
L 248.346732 60.892385 
L 248.671712 60.400259 
L 248.996691 60.835607 
L 249.321671 60.345406 
L 249.64665 60.779248 
L 249.97163 60.290956 
L 250.296609 60.723304 
L 250.621589 60.236907 
L 250.946568 60.667769 
L 251.271548 60.183252 
L 251.596527 60.61264 
L 251.921507 60.129988 
L 252.246486 60.557912 
L 252.571466 60.077111 
L 252.896446 60.50358 
L 253.221425 60.024617 
L 253.546405 60.449641 
L 253.871384 59.972501 
L 254.196364 60.39609 
L 254.521343 59.920759 
L 254.846323 60.342922 
L 255.171302 59.869387 
L 255.496282 60.290134 
L 255.821261 59.818382 
L 256.146241 60.237722 
L 256.47122 59.767739 
L 256.7962 60.185682 
L 257.121179 59.717454 
L 257.446159 60.13401 
L 257.771138 59.667524 
L 258.096118 60.082701 
L 258.421097 59.617946 
L 258.746077 60.031753 
L 259.071057 59.568714 
L 259.396036 59.98116 
L 259.721016 59.519826 
L 260.045995 59.930921 
L 260.370975 59.471279 
L 260.695954 59.88103 
L 261.020934 59.423068 
L 261.345913 59.831484 
L 261.670893 59.37519 
L 261.995872 59.782281 
L 262.320852 59.327641 
L 262.645831 59.733415 
L 262.970811 59.280419 
L 263.29579 59.684884 
L 263.62077 59.23352 
L 263.945749 59.636684 
L 264.270729 59.18694 
L 264.595708 59.588813 
L 264.920688 59.140677 
L 265.245667 59.541265 
L 265.570647 59.094726 
L 265.895627 59.494039 
L 266.220606 59.049086 
L 266.545586 59.447131 
L 266.870565 59.003753 
L 267.195545 59.400538 
L 267.520524 58.958723 
L 267.845504 59.354257 
L 268.170483 58.913994 
L 268.495463 59.308284 
L 268.820442 58.869562 
L 269.145422 59.262616 
L 269.470401 58.825426 
L 269.795381 59.217251 
L 270.12036 58.781581 
L 270.44534 59.172186 
L 270.770319 58.738025 
L 271.095299 59.127417 
L 271.420278 58.694755 
L 271.745258 59.082941 
L 272.070238 58.651769 
L 272.395217 59.038756 
L 272.720197 58.609063 
L 273.045176 58.994859 
L 273.370156 58.566635 
L 273.695135 58.951247 
L 274.020115 58.524481 
L 274.345094 58.907917 
L 274.670074 58.482601 
L 274.995053 58.864867 
L 275.320033 58.44099 
L 275.645012 58.822094 
L 275.969992 58.399646 
L 276.294971 58.779595 
L 276.619951 58.358566 
L 276.94493 58.737367 
L 277.26991 58.317749 
L 277.594889 58.695409 
L 277.919869 58.277192 
L 278.244848 58.653717 
L 278.569828 58.236891 
L 278.894808 58.612288 
L 279.219787 58.196845 
L 279.544767 58.571121 
L 279.869746 58.157052 
L 280.194726 58.530213 
L 280.519705 58.117508 
L 280.844685 58.489562 
L 281.169664 58.078212 
L 281.494644 58.449164 
L 281.819623 58.039161 
L 282.144603 58.409019 
L 282.469582 58.000353 
L 282.794562 58.369122 
L 283.119541 57.961785 
L 283.444521 58.329473 
L 283.7695 57.923456 
L 284.09448 58.290068 
L 284.419459 57.885364 
L 284.744439 58.250906 
L 285.069419 57.847505 
L 285.394398 58.211984 
L 285.719378 57.809878 
L 286.044357 58.1733 
L 286.369337 57.772481 
L 286.694316 58.134852 
L 287.019296 57.735312 
L 287.344275 58.096638 
L 287.669255 57.698368 
L 287.994234 58.058656 
L 288.319214 57.661648 
L 288.644193 58.020903 
L 288.969173 57.62515 
L 289.294152 57.983377 
L 289.619132 57.588871 
L 289.944111 57.946077 
L 290.269091 57.552809 
L 290.59407 57.909 
L 290.91905 57.516963 
L 291.244029 57.872144 
L 291.569009 57.481331 
L 291.893989 57.835508 
L 292.218968 57.445911 
L 292.543948 57.799089 
L 292.868927 57.4107 
L 293.193907 57.762886 
L 293.518886 57.375698 
L 293.843866 57.726896 
L 294.168845 57.340902 
L 294.493825 57.691118 
L 294.818804 57.30631 
L 295.143784 57.65555 
L 295.468763 57.271921 
L 295.793743 57.62019 
L 296.118722 57.237732 
L 296.443702 57.585036 
L 296.768681 57.203743 
L 297.093661 57.550086 
L 297.41864 57.169951 
L 297.74362 57.515339 
L 298.0686 57.136354 
L 298.393579 57.480793 
L 298.718559 57.102952 
L 299.043538 57.446446 
L 299.368518 57.069741 
L 299.693497 57.412296 
L 300.018477 57.036722 
L 300.343456 57.378342 
L 300.668436 57.003891 
L 300.993415 57.344582 
L 301.318395 56.971247 
L 301.643374 57.311015 
L 301.968354 56.93879 
L 302.293333 57.277638 
L 302.618313 56.906516 
L 302.943292 57.24445 
L 303.268272 56.874425 
L 303.593251 57.21145 
L 303.918231 56.842515 
L 304.24321 57.178636 
L 304.56819 56.810785 
L 304.89317 57.146006 
L 305.218149 56.779233 
L 305.543129 57.113559 
L 305.868108 56.747857 
L 306.193088 57.081293 
L 306.518067 56.716656 
L 306.843047 57.049207 
L 307.168026 56.685629 
L 307.493006 57.017299 
L 307.817985 56.654774 
L 308.142965 56.985568 
L 308.467944 56.624089 
L 308.792924 56.954012 
L 309.117903 56.593574 
L 309.442883 56.92263 
L 309.767862 56.563227 
L 310.092842 56.891421 
L 310.417821 56.533047 
L 310.742801 56.860382 
L 311.067781 56.503031 
L 311.39276 56.829513 
L 311.71774 56.473179 
L 312.042719 56.798813 
L 312.367699 56.44349 
L 312.692678 56.768279 
L 313.017658 56.413962 
L 313.342637 56.73791 
L 313.667617 56.384594 
L 313.992596 56.707706 
L 314.317576 56.355384 
L 314.642555 56.677665 
L 314.967535 56.326331 
L 315.292514 56.647785 
L 315.617494 56.297435 
L 315.942473 56.618066 
L 316.267453 56.268693 
L 316.592432 56.588505 
L 316.917412 56.240105 
L 317.242391 56.559102 
L 317.567371 56.211669 
L 317.892351 56.529855 
L 318.21733 56.183384 
L 318.54231 56.500764 
L 318.867289 56.155249 
L 319.192269 56.471826 
L 319.517248 56.127262 
L 319.842228 56.443041 
L 320.167207 56.099423 
L 320.492187 56.414408 
L 320.817166 56.07173 
L 321.142146 56.385925 
L 321.467125 56.044183 
L 321.792105 56.357591 
L 322.117084 56.01678 
L 322.442064 56.329405 
L 322.767043 55.989519 
L 323.092023 56.301366 
L 323.417002 55.9624 
L 323.741982 56.273473 
L 324.066962 55.935422 
L 324.391941 56.245724 
L 324.716921 55.908584 
L 325.0419 56.218118 
L 325.36688 55.881884 
L 325.691859 56.190655 
L 326.016839 55.855322 
L 326.341818 56.163333 
L 326.666798 55.828896 
L 326.991777 56.136151 
L 327.316757 55.802605 
L 327.641736 56.109108 
L 327.966716 55.776448 
L 328.291695 56.082203 
L 328.616675 55.750425 
L 328.941654 56.055435 
L 329.266634 55.724534 
L 329.591613 56.028803 
L 329.916593 55.698775 
L 330.241572 56.002306 
L 330.566552 55.673146 
L 330.891532 55.975942 
L 331.216511 55.647646 
L 331.541491 55.949711 
L 331.86647 55.622274 
L 332.19145 55.923613 
L 332.516429 55.597029 
L 332.841409 55.897645 
L 333.166388 55.571911 
L 333.491368 55.871806 
L 333.816347 55.546919 
L 334.141327 55.846097 
L 334.466306 55.522051 
L 334.791286 55.820516 
L 335.116265 55.497306 
L 335.441245 55.795061 
L 335.766224 55.472684 
L 336.091204 55.769733 
L 336.416183 55.448184 
L 336.741163 55.744529 
L 337.066143 55.423805 
L 337.391122 55.71945 
L 337.716102 55.399545 
L 338.041081 55.694494 
L 338.366061 55.375405 
L 338.69104 55.669661 
L 339.01602 55.351383 
L 339.340999 55.644948 
L 339.665979 55.327478 
L 339.990958 55.620357 
L 340.315938 55.30369 
L 340.640917 55.595885 
L 340.965897 55.280017 
L 341.290876 55.571532 
L 341.615856 55.256459 
L 341.940835 55.547296 
L 342.265815 55.233015 
L 342.590794 55.523178 
L 342.915774 55.209684 
L 343.240753 55.499176 
L 343.565733 55.186466 
L 343.890713 55.47529 
L 344.215692 55.163359 
L 344.540672 55.451518 
L 344.865651 55.140362 
L 345.190631 55.42786 
L 345.51561 55.117476 
L 345.84059 55.404314 
L 346.165569 55.094699 
L 346.490549 55.380881 
L 346.815528 55.07203 
L 347.140508 55.357559 
L 347.465487 55.049468 
L 347.790467 55.334348 
L 348.115446 55.027013 
L 348.440426 55.311246 
L 348.765405 55.004665 
L 349.090385 55.288254 
L 349.415364 54.982421 
L 349.740344 55.265369 
L 350.065324 54.960283 
L 350.390303 55.242592 
L 350.715283 54.938248 
L 351.040262 55.219922 
L 351.365242 54.916316 
L 351.690221 55.197358 
L 352.015201 54.894486 
L 352.34018 55.174898 
L 352.66516 54.872759 
L 352.990139 55.152544 
L 353.315119 54.851132 
L 353.640098 55.130293 
L 353.965078 54.829605 
L 354.290057 55.108145 
L 354.615037 54.808178 
L 354.940016 55.086099 
L 355.264996 54.78685 
L 355.589975 55.064155 
L 355.914955 54.765619 
L 356.239934 55.042312 
L 356.564914 54.744487 
L 356.889894 55.020569 
L 357.214873 54.723451 
L 357.539853 54.998925 
L 357.864832 54.702512 
L 358.189812 54.977381 
L 358.514791 54.681667 
L 358.839771 54.955934 
L 359.16475 54.660918 
L 359.48973 54.934585 
L 359.814709 54.640263 
L 360.139689 54.913333 
L 360.464668 54.619702 
L 360.789648 54.892177 
L 361.114627 54.599233 
L 361.439607 54.871117 
L 361.764586 54.578857 
L 362.089566 54.850151 
L 362.414545 54.558572 
L 362.739525 54.82928 
L 363.064505 54.538379 
L 363.389484 54.808502 
L 363.714464 54.518276 
L 364.039443 54.787817 
L 364.364423 54.498263 
L 364.689402 54.767224 
L 365.014382 54.478339 
L 365.339361 54.746724 
L 365.664341 54.458503 
L 365.98932 54.726314 
L 366.3143 54.438756 
L 366.639279 54.705995 
L 366.964259 54.419096 
L 367.289238 54.685766 
L 367.614218 54.399524 
L 367.939197 54.665626 
L 368.264177 54.380037 
L 368.589156 54.645574 
L 368.914136 54.360636 
L 369.239115 54.625611 
L 369.564095 54.341321 
L 369.889075 54.605736 
L 370.214054 54.32209 
L 370.539034 54.585947 
L 370.864013 54.302943 
L 371.188993 54.566245 
L 371.513972 54.283879 
L 371.838952 54.546629 
L 372.163931 54.264899 
L 372.488911 54.527098 
L 372.81389 54.246001 
L 373.13887 54.507652 
L 373.463849 54.227185 
L 373.788829 54.48829 
L 374.113808 54.20845 
L 374.438788 54.469011 
L 374.763767 54.189796 
L 375.088747 54.449816 
L 375.413726 54.171223 
L 375.738706 54.430703 
L 376.063686 54.152729 
L 376.388665 54.411672 
L 376.713645 54.134314 
L 377.038624 54.392723 
L 377.363604 54.115979 
L 377.688583 54.373855 
L 378.013563 54.097721 
L 378.338542 54.355067 
L 378.663522 54.079542 
L 378.988501 54.336359 
L 379.313481 54.061439 
L 379.63846 54.317731 
L 379.96344 54.043414 
L 380.288419 54.299181 
L 380.613399 54.025464 
L 380.938378 54.28071 
L 381.263358 54.007591 
L 381.588337 54.262317 
L 381.913317 53.989793 
L 382.238296 54.244001 
L 382.563276 53.972069 
L 382.888256 54.225763 
L 383.213235 53.954421 
L 383.538215 54.2076 
L 383.863194 53.936846 
L 384.188174 54.189514 
L 384.513153 53.919344 
L 384.838133 54.171503 
L 385.163112 53.901916 
L 385.488092 54.153568 
L 385.813071 53.88456 
L 386.138051 54.135707 
L 386.46303 53.867276 
L 386.78801 54.11792 
L 387.112989 53.850063 
L 387.437969 54.100206 
L 387.762948 53.832922 
L 388.087928 54.082566 
L 388.412907 53.815852 
L 388.737887 54.064999 
L 389.062867 53.798852 
L 389.387846 54.047504 
L 389.712826 53.781922 
L 390.037805 54.03008 
L 390.362785 53.765062 
L 390.687764 54.012728 
L 391.012744 53.74827 
L 391.337723 53.995448 
L 391.662703 53.731547 
L 391.987682 53.978237 
L 392.312662 53.714892 
L 392.637641 53.961097 
L 392.962621 53.698305 
L 393.2876 53.944026 
L 393.61258 53.681786 
L 393.937559 53.927025 
L 394.262539 53.665333 
L 394.587518 53.910093 
L 394.912498 53.648947 
L 395.237477 53.893229 
L 395.562457 53.632627 
L 395.887437 53.876432 
L 396.212416 53.616372 
L 396.537396 53.859704 
L 396.862375 53.600183 
L 397.187355 53.843043 
L 397.512334 53.584059 
L 397.837314 53.826448 
L 398.162293 53.568 
L 398.487273 53.80992 
L 398.487273 53.80992 
" style="fill:none;stroke:#1f77b4;stroke-linecap:square;stroke-width:1.5;"/>
   </g>
   <g id="patch_3">
    <path d="M 57.6 307.584 
L 57.6 41.472 
" style="fill:none;stroke:#000000;stroke-linecap:square;stroke-linejoin:miter;stroke-width:0.8;"/>
   </g>
   <g id="patch_4">
    <path d="M 414.72 307.584 
L 414.72 41.472 
" style="fill:none;stroke:#000000;stroke-linecap:square;stroke-linejoin:miter;stroke-width:0.8;"/>
   </g>
   <g id="patch_5">
    <path d="M 57.6 307.584 
L 414.72 307.584 
" style="fill:none;stroke:#000000;stroke-linecap:square;stroke-linejoin:miter;stroke-width:0.8;"/>
   </g>
   <g id="patch_6">
    <path d="M 57.6 41.472 
L 414.72 41.472 
" style="fill:none;stroke:#000000;stroke-linecap:square;stroke-linejoin:miter;stroke-width:0.8;"/>
   </g>
   <g id="legend_1">
    <g id="patch_7">
     <path d="M 64.6 64.150125 
L 137.665625 64.150125 
Q 139.665625 64.150125 139.665625 62.150125 
L 139.665625 48.472 
Q 139.665625 46.472 137.665625 46.472 
L 64.6 46.472 
Q 62.6 46.472 62.6 48.472 
L 62.6 62.150125 
Q 62.6 64.150125 64.6 64.150125 
z
" style="fill:#ffffff;opacity:0.8;stroke:#cccccc;stroke-linejoin:miter;"/>
    </g>
    <g id="line2d_16">
     <path d="M 66.6 54.570438 
L 86.6 54.570438 
" style="fill:none;stroke:#1f77b4;stroke-linecap:square;stroke-width:1.5;"/>
    </g>
    <g id="line2d_17"/>
    <g id="text_15">
     <!-- Average -->
     <g transform="translate(94.6 58.070438)scale(0.1 -0.1)">
      <defs>
       <path d="M 34.1875 63.1875 
L 20.796875 26.90625 
L 47.609375 26.90625 
z
M 28.609375 72.90625 
L 39.796875 72.90625 
L 67.578125 0 
L 57.328125 0 
L 50.6875 18.703125 
L 17.828125 18.703125 
L 11.1875 0 
L 0.78125 0 
z
" id="DejaVuSans-65"/>
       <path d="M 2.984375 54.6875 
L 12.5 54.6875 
L 29.59375 8.796875 
L 46.6875 54.6875 
L 56.203125 54.6875 
L 35.6875 0 
L 23.484375 0 
z
" id="DejaVuSans-118"/>
       <path d="M 56.203125 29.59375 
L 56.203125 25.203125 
L 14.890625 25.203125 
Q 15.484375 15.921875 20.484375 11.0625 
Q 25.484375 6.203125 34.421875 6.203125 
Q 39.59375 6.203125 44.453125 7.46875 
Q 49.3125 8.734375 54.109375 11.28125 
L 54.109375 2.78125 
Q 49.265625 0.734375 44.1875 -0.34375 
Q 39.109375 -1.421875 33.890625 -1.421875 
Q 20.796875 -1.421875 13.15625 6.1875 
Q 5.515625 13.8125 5.515625 26.8125 
Q 5.515625 40.234375 12.765625 48.109375 
Q 20.015625 56 32.328125 56 
Q 43.359375 56 49.78125 48.890625 
Q 56.203125 41.796875 56.203125 29.59375 
z
M 47.21875 32.234375 
Q 47.125 39.59375 43.09375 43.984375 
Q 39.0625 48.390625 32.421875 48.390625 
Q 24.90625 48.390625 20.390625 44.140625 
Q 15.875 39.890625 15.1875 32.171875 
z
" id="DejaVuSans-101"/>
       <path d="M 41.109375 46.296875 
Q 39.59375 47.171875 37.8125 47.578125 
Q 36.03125 48 33.890625 48 
Q 26.265625 48 22.1875 43.046875 
Q 18.109375 38.09375 18.109375 28.8125 
L 18.109375 0 
L 9.078125 0 
L 9.078125 54.6875 
L 18.109375 54.6875 
L 18.109375 46.1875 
Q 20.953125 51.171875 25.484375 53.578125 
Q 30.03125 56 36.53125 56 
Q 37.453125 56 38.578125 55.875 
Q 39.703125 55.765625 41.0625 55.515625 
z
" id="DejaVuSans-114"/>
       <path d="M 34.28125 27.484375 
Q 23.390625 27.484375 19.1875 25 
Q 14.984375 22.515625 14.984375 16.5 
Q 14.984375 11.71875 18.140625 8.90625 
Q 21.296875 6.109375 26.703125 6.109375 
Q 34.1875 6.109375 38.703125 11.40625 
Q 43.21875 16.703125 43.21875 25.484375 
L 43.21875 27.484375 
z
M 52.203125 31.203125 
L 52.203125 0 
L 43.21875 0 
L 43.21875 8.296875 
Q 40.140625 3.328125 35.546875 0.953125 
Q 30.953125 -1.421875 24.3125 -1.421875 
Q 15.921875 -1.421875 10.953125 3.296875 
Q 6 8.015625 6 15.921875 
Q 6 25.140625 12.171875 29.828125 
Q 18.359375 34.515625 30.609375 34.515625 
L 43.21875 34.515625 
L 43.21875 35.40625 
Q 43.21875 41.609375 39.140625 45 
Q 35.0625 48.390625 27.6875 48.390625 
Q 23 48.390625 18.546875 47.265625 
Q 14.109375 46.140625 10.015625 43.890625 
L 10.015625 52.203125 
Q 14.9375 54.109375 19.578125 55.046875 
Q 24.21875 56 28.609375 56 
Q 40.484375 56 46.34375 49.84375 
Q 52.203125 43.703125 52.203125 31.203125 
z
" id="DejaVuSans-97"/>
       <path d="M 45.40625 27.984375 
Q 45.40625 37.75 41.375 43.109375 
Q 37.359375 48.484375 30.078125 48.484375 
Q 22.859375 48.484375 18.828125 43.109375 
Q 14.796875 37.75 14.796875 27.984375 
Q 14.796875 18.265625 18.828125 12.890625 
Q 22.859375 7.515625 30.078125 7.515625 
Q 37.359375 7.515625 41.375 12.890625 
Q 45.40625 18.265625 45.40625 27.984375 
z
M 54.390625 6.78125 
Q 54.390625 -7.171875 48.1875 -13.984375 
Q 42 -20.796875 29.203125 -20.796875 
Q 24.46875 -20.796875 20.265625 -20.09375 
Q 16.0625 -19.390625 12.109375 -17.921875 
L 12.109375 -9.1875 
Q 16.0625 -11.328125 19.921875 -12.34375 
Q 23.78125 -13.375 27.78125 -13.375 
Q 36.625 -13.375 41.015625 -8.765625 
Q 45.40625 -4.15625 45.40625 5.171875 
L 45.40625 9.625 
Q 42.625 4.78125 38.28125 2.390625 
Q 33.9375 0 27.875 0 
Q 17.828125 0 11.671875 7.65625 
Q 5.515625 15.328125 5.515625 27.984375 
Q 5.515625 40.671875 11.671875 48.328125 
Q 17.828125 56 27.875 56 
Q 33.9375 56 38.28125 53.609375 
Q 42.625 51.21875 45.40625 46.390625 
L 45.40625 54.6875 
L 54.390625 54.6875 
z
" id="DejaVuSans-103"/>
      </defs>
      <use xlink:href="#DejaVuSans-65"/>
      <use x="62.533203" xlink:href="#DejaVuSans-118"/>
      <use x="121.712891" xlink:href="#DejaVuSans-101"/>
      <use x="183.236328" xlink:href="#DejaVuSans-114"/>
      <use x="224.349609" xlink:href="#DejaVuSans-97"/>
      <use x="285.628906" xlink:href="#DejaVuSans-103"/>
      <use x="349.105469" xlink:href="#DejaVuSans-101"/>
     </g>
    </g>
   </g>
  </g>
 </g>
 <defs>
  <clipPath id="pcc5683df24">
   <rect height="266.112" width="357.12" x="57.6" y="41.472"/>
  </clipPath>
 </defs>
</svg>
